<svg width="382" height="366" viewBox="0 0 382 366" fill="none" xmlns="http://www.w3.org/2000/svg">
    <path d="M64.2967 147.636H57.0865C57.0353 147.04 56.899 146.499 56.6774 146.013C56.4643 145.527 56.166 145.109 55.7825 144.76C55.4075 144.402 54.9515 144.129 54.4146 143.942C53.8777 143.746 53.2683 143.648 52.5865 143.648C51.3933 143.648 50.3833 143.937 49.5566 144.517C48.7385 145.097 48.1163 145.928 47.6902 147.01C47.2725 148.092 47.0637 149.392 47.0637 150.909C47.0637 152.511 47.2768 153.854 47.7029 154.936C48.1376 156.01 48.764 156.82 49.5822 157.365C50.4004 157.902 51.3848 158.17 52.5353 158.17C53.1916 158.17 53.7797 158.089 54.2995 157.928C54.8194 157.757 55.2711 157.514 55.6547 157.199C56.0382 156.884 56.3493 156.504 56.5879 156.061C56.8351 155.609 57.0012 155.102 57.0865 154.54L64.2967 154.591C64.2115 155.699 63.9004 156.828 63.3635 157.979C62.8265 159.121 62.0637 160.178 61.0751 161.149C60.095 162.112 58.8805 162.888 57.4316 163.476C55.9828 164.064 54.2995 164.358 52.3819 164.358C49.9785 164.358 47.8223 163.842 45.9132 162.811C44.0126 161.78 42.5083 160.263 41.4004 158.26C40.301 156.257 39.7512 153.807 39.7512 150.909C39.7512 147.994 40.3137 145.54 41.4387 143.545C42.5637 141.543 44.0808 140.03 45.9899 139.007C47.899 137.976 50.0297 137.46 52.3819 137.46C54.0353 137.46 55.5566 137.686 56.9458 138.138C58.3351 138.589 59.5538 139.25 60.6021 140.119C61.6504 140.98 62.4941 142.041 63.1333 143.303C63.7726 144.564 64.1603 146.009 64.2967 147.636ZM40.6142 174.545V168.818H63.3699V174.545H55.4949V195H48.4892V174.545H40.6142ZM55.5572 199.818V226H48.4492V199.818H55.5572ZM64.725 243.909C64.725 246.824 64.1582 249.283 63.0247 251.286C61.8912 253.28 60.3613 254.793 58.4352 255.824C56.5091 256.847 54.3613 257.358 51.992 257.358C49.6056 257.358 47.4494 256.842 45.5233 255.811C43.6056 254.771 42.0801 253.254 40.9466 251.26C39.8216 249.257 39.2591 246.807 39.2591 243.909C39.2591 240.994 39.8216 238.54 40.9466 236.545C42.0801 234.543 43.6056 233.03 45.5233 232.007C47.4494 230.976 49.6056 230.46 51.992 230.46C54.3613 230.46 56.5091 230.976 58.4352 232.007C60.3613 233.03 61.8912 234.543 63.0247 236.545C64.1582 238.54 64.725 240.994 64.725 243.909ZM57.4125 243.909C57.4125 242.341 57.2037 241.02 56.786 239.946C56.377 238.864 55.7676 238.045 54.9579 237.491C54.1568 236.929 53.1681 236.648 51.992 236.648C50.8159 236.648 49.823 236.929 49.0133 237.491C48.2122 238.045 47.6028 238.864 47.1852 239.946C46.7761 241.02 46.5716 242.341 46.5716 243.909C46.5716 245.477 46.7761 246.803 47.1852 247.885C47.6028 248.959 48.2122 249.777 49.0133 250.339C49.823 250.893 50.8159 251.17 51.992 251.17C53.1681 251.17 54.1568 250.893 54.9579 250.339C55.7676 249.777 56.377 248.959 56.786 247.885C57.2037 246.803 57.4125 245.477 57.4125 243.909ZM63.3331 261.818V288H57.4013L47.9411 274.244H47.7876V288H40.6797V261.818H46.7138L56.0206 275.523H56.2251V261.818H63.3331Z" fill="#070707"/>
    <path d="M138.49 166V139.818H157.36V145.545H145.598V150.045H156.388V155.773H145.598V160.273H157.308V166H138.49ZM142.778 197H135.107L143.749 170.818H153.465L162.107 197H154.437L148.71 178.028H148.505L142.778 197ZM141.346 186.67H155.766V191.989H141.346V186.67ZM160.297 211.636H153.086C153.035 211.04 152.899 210.499 152.677 210.013C152.464 209.527 152.166 209.109 151.782 208.76C151.407 208.402 150.952 208.129 150.415 207.942C149.878 207.746 149.268 207.648 148.586 207.648C147.393 207.648 146.383 207.937 145.557 208.517C144.738 209.097 144.116 209.928 143.69 211.01C143.273 212.092 143.064 213.392 143.064 214.909C143.064 216.511 143.277 217.854 143.703 218.936C144.138 220.01 144.764 220.82 145.582 221.365C146.4 221.902 147.385 222.17 148.535 222.17C149.192 222.17 149.78 222.089 150.3 221.928C150.819 221.757 151.271 221.514 151.655 221.199C152.038 220.884 152.349 220.504 152.588 220.061C152.835 219.609 153.001 219.102 153.086 218.54L160.297 218.591C160.211 219.699 159.9 220.828 159.363 221.979C158.827 223.121 158.064 224.178 157.075 225.149C156.095 226.112 154.881 226.888 153.432 227.476C151.983 228.064 150.3 228.358 148.382 228.358C145.979 228.358 143.822 227.842 141.913 226.811C140.013 225.78 138.508 224.263 137.4 222.26C136.301 220.257 135.751 217.807 135.751 214.909C135.751 211.994 136.314 209.54 137.439 207.545C138.564 205.543 140.081 204.03 141.99 203.007C143.899 201.976 146.03 201.46 148.382 201.46C150.035 201.46 151.557 201.686 152.946 202.138C154.335 202.589 155.554 203.25 156.602 204.119C157.65 204.98 158.494 206.041 159.133 207.303C159.773 208.564 160.16 210.009 160.297 211.636ZM136.614 238.545V232.818H159.37V238.545H151.495V259H144.489V238.545H136.614ZM151.557 263.818V290H144.449V263.818H151.557ZM160.725 307.909C160.725 310.824 160.158 313.283 159.025 315.286C157.891 317.28 156.361 318.793 154.435 319.824C152.509 320.847 150.361 321.358 147.992 321.358C145.606 321.358 143.449 320.842 141.523 319.811C139.606 318.771 138.08 317.254 136.947 315.26C135.822 313.257 135.259 310.807 135.259 307.909C135.259 304.994 135.822 302.54 136.947 300.545C138.08 298.543 139.606 297.03 141.523 296.007C143.449 294.976 145.606 294.46 147.992 294.46C150.361 294.46 152.509 294.976 154.435 296.007C156.361 297.03 157.891 298.543 159.025 300.545C160.158 302.54 160.725 304.994 160.725 307.909ZM153.412 307.909C153.412 306.341 153.204 305.02 152.786 303.946C152.377 302.864 151.768 302.045 150.958 301.491C150.157 300.929 149.168 300.648 147.992 300.648C146.816 300.648 145.823 300.929 145.013 301.491C144.212 302.045 143.603 302.864 143.185 303.946C142.776 305.02 142.572 306.341 142.572 307.909C142.572 309.477 142.776 310.803 143.185 311.885C143.603 312.959 144.212 313.777 145.013 314.339C145.823 314.893 146.816 315.17 147.992 315.17C149.168 315.17 150.157 314.893 150.958 314.339C151.768 313.777 152.377 312.959 152.786 311.885C153.204 310.803 153.412 309.477 153.412 307.909ZM159.333 325.818V352H153.401L143.941 338.244H143.788V352H136.68V325.818H142.714L152.021 339.523H152.225V325.818H159.333Z" fill="#070707"/>
    <path d="M30.1818 124H2.90909L33.6364 30.9091H68.1818L98.9091 124H71.6364L51.2727 56.5455H50.5455L30.1818 124ZM25.0909 87.2727H76.3636V106.182H25.0909V87.2727ZM107.875 124V30.9091H148.057C154.966 30.9091 161.011 32.1667 166.193 34.6818C171.375 37.197 175.405 40.8182 178.284 45.5455C181.163 50.2727 182.602 55.9394 182.602 62.5455C182.602 69.2121 181.117 74.8333 178.148 79.4091C175.208 83.9848 171.072 87.4394 165.739 89.7727C160.436 92.1061 154.239 93.2727 147.148 93.2727H123.148V73.6364H142.057C145.027 73.6364 147.557 73.2727 149.648 72.5455C151.769 71.7879 153.39 70.5909 154.511 68.9545C155.663 67.3182 156.239 65.1818 156.239 62.5455C156.239 59.8788 155.663 57.7121 154.511 56.0455C153.39 54.3485 151.769 53.1061 149.648 52.3182C147.557 51.5 145.027 51.0909 142.057 51.0909H133.148V124H107.875ZM162.42 81.2727L185.693 124H158.239L135.511 81.2727H162.42ZM193.375 124V30.9091H260.466V51.2727H218.648V67.2727H257.011V87.6364H218.648V103.636H260.284V124H193.375ZM297.182 124H269.909L300.636 30.9091H335.182L365.909 124H338.636L318.273 56.5455H317.545L297.182 124ZM292.091 87.2727H343.364V106.182H292.091V87.2727Z" fill="#070707"/>
</svg>
