<svg width="393" height="77" viewBox="0 0 393 77" fill="none" xmlns="http://www.w3.org/2000/svg">
<rect x="157" width="79" height="4" rx="2" fill="#070707"/>
<path fill-rule="evenodd" clip-rule="evenodd" d="M65 61.5C75.7696 61.5 84.5 52.7696 84.5 42C84.5 31.2304 75.7696 22.5 65 22.5C54.2304 22.5 45.5 31.2304 45.5 42C45.5 52.7696 54.2304 61.5 65 61.5ZM57.4393 43.0607L66.9853 52.6066C67.5711 53.1924 68.5208 53.1924 69.1066 52.6066C69.6924 52.0208 69.6924 51.0711 69.1066 50.4853L60.6213 42L69.1066 33.5147C69.6924 32.9289 69.6924 31.9792 69.1066 31.3934C68.5208 30.8076 67.5711 30.8076 66.9853 31.3934L57.4393 40.9393C56.8536 41.5251 56.8536 42.4749 57.4393 43.0607Z" fill="#070707"/>
<path d="M198.275 40.775C197.792 41.2583 197.2 41.5 196.5 41.5C195.8 41.5 195.208 41.2583 194.725 40.775C194.242 40.2917 194 39.7 194 39C194 38.3 194.242 37.7083 194.725 37.225C195.208 36.7417 195.8 36.5 196.5 36.5C197.2 36.5 197.792 36.7417 198.275 37.225C198.758 37.7083 199 38.3 199 39C199 39.7 198.758 40.2917 198.275 40.775Z" fill="#070707"/>
<path fill-rule="evenodd" clip-rule="evenodd" d="M180.5 26C171.663 26 164.5 33.1634 164.5 42C164.5 50.8366 171.663 58 180.5 58H212.5C221.337 58 228.5 50.8366 228.5 42C228.5 33.1634 221.337 26 212.5 26H180.5ZM195.9 51.8C196.067 51.9333 196.267 52 196.5 52C196.717 52 196.908 51.9417 197.075 51.825C197.258 51.6917 197.392 51.5083 197.475 51.275C197.775 50.3917 198.15 49.5583 198.6 48.775C199.067 47.975 199.75 46.975 200.65 45.775C201.4 44.7917 202.058 43.8 202.625 42.8C203.208 41.7833 203.5 40.5167 203.5 39C203.5 37.05 202.817 35.4 201.45 34.05C200.1 32.6833 198.45 32 196.5 32C194.55 32 192.892 32.6833 191.525 34.05C190.175 35.4 189.5 37.05 189.5 39C189.5 40.4167 189.758 41.625 190.275 42.625C190.808 43.625 191.5 44.675 192.35 45.775C193.2 46.875 193.858 47.8333 194.325 48.65C194.808 49.4667 195.208 50.3417 195.525 51.275C195.608 51.4917 195.733 51.6667 195.9 51.8Z" fill="#070707"/>
<path d="M332 38C332 40.2091 330.209 42 328 42C325.791 42 324 40.2091 324 38C324 35.7909 325.791 34 328 34C330.209 34 332 35.7909 332 38Z" fill="#070707"/>
<path fill-rule="evenodd" clip-rule="evenodd" d="M347.5 42C347.5 31.2304 338.77 22.5 328 22.5C317.23 22.5 308.5 31.2304 308.5 42C308.5 47.336 310.643 52.1713 314.116 55.6923C316.356 50.5922 321.729 47 328 47C334.272 47 339.644 50.592 341.885 55.6919C345.357 52.171 347.5 47.3358 347.5 42ZM334 38C334 41.3137 331.314 44 328 44C324.686 44 322 41.3137 322 38C322 34.6863 324.686 32 328 32C331.314 32 334 34.6863 334 38Z" fill="#070707"/>
<path d="M340.304 57.129C338.574 52.4573 333.797 49 328 49C322.203 49 317.427 52.4575 315.696 57.1293C319.052 59.8618 323.335 61.5 328 61.5C332.665 61.5 336.948 59.8617 340.304 57.129Z" fill="#070707"/>
</svg>
