<svg width="143" height="55" viewBox="0 0 143 55" fill="currentColor" xmlns="http://www.w3.org/2000/svg">
    <path fill-rule="evenodd" clip-rule="evenodd" d="M0 27.5C0 12.3121 12.3122 0 27.5 0H115.5C130.688 0 143 12.3121 143 27.5C143 42.6879 130.688 55 115.5 55H27.5C12.3122 55 0 42.6879 0 27.5ZM24.8309 30.8086C24.8309 30.5352 24.7885 30.291 24.7039 30.0762C24.6258 29.8549 24.4793 29.6562 24.2645 29.4805C24.0561 29.2982 23.7599 29.1224 23.3758 28.9531C22.9982 28.7773 22.5099 28.5951 21.9109 28.4062C21.2469 28.1979 20.6284 27.9635 20.0555 27.7031C19.4826 27.4427 18.978 27.14 18.5418 26.7949C18.1121 26.4498 17.7768 26.0527 17.5359 25.6035C17.2951 25.1478 17.1746 24.6205 17.1746 24.0215C17.1746 23.4355 17.2983 22.9017 17.5457 22.4199C17.7996 21.9381 18.1577 21.5248 18.6199 21.1797C19.0822 20.8281 19.6258 20.558 20.2508 20.3691C20.8823 20.1803 21.5789 20.0859 22.3406 20.0859C23.3953 20.0859 24.3068 20.278 25.075 20.6621C25.8497 21.0463 26.4487 21.567 26.8719 22.2246C27.295 22.8822 27.5067 23.6211 27.5067 24.4414H24.8309C24.8309 23.9987 24.7365 23.608 24.5477 23.2695C24.3654 22.931 24.0854 22.6641 23.7078 22.4688C23.3367 22.2734 22.868 22.1758 22.3016 22.1758C21.7547 22.1758 21.299 22.2572 20.9344 22.4199C20.5763 22.5826 20.3061 22.8041 20.1238 23.084C19.948 23.3639 19.8602 23.6764 19.8602 24.0215C19.8602 24.2819 19.922 24.5162 20.0457 24.7246C20.1694 24.9264 20.3549 25.1185 20.6023 25.3008C20.8497 25.4766 21.1557 25.6426 21.5203 25.7988C21.8914 25.9486 22.3211 26.0983 22.8094 26.248C23.5906 26.4824 24.2742 26.7428 24.8602 27.0293C25.4526 27.3158 25.9442 27.6412 26.3348 28.0059C26.7319 28.3705 27.0281 28.7806 27.2234 29.2363C27.4253 29.692 27.5262 30.2096 27.5262 30.7891C27.5262 31.401 27.4057 31.9479 27.1649 32.4297C26.924 32.9115 26.5789 33.3217 26.1297 33.6602C25.6805 33.9987 25.1401 34.2559 24.5086 34.4316C23.8836 34.6074 23.1837 34.6953 22.409 34.6953C21.7189 34.6953 21.0353 34.6041 20.3582 34.4219C19.6876 34.233 19.0789 33.9531 18.532 33.582C17.9852 33.2045 17.549 32.7291 17.2234 32.1562C16.8979 31.5768 16.7352 30.8998 16.7352 30.125H19.4305C19.4305 30.5742 19.5021 30.9584 19.6453 31.2773C19.7951 31.5898 20.0034 31.847 20.2703 32.0488C20.5437 32.2441 20.8628 32.3873 21.2273 32.4785C21.5919 32.5697 21.9858 32.6152 22.409 32.6152C22.9559 32.6152 23.4051 32.5404 23.7566 32.3906C24.1147 32.2344 24.3816 32.0195 24.5574 31.7461C24.7397 31.4727 24.8309 31.1602 24.8309 30.8086ZM32.2355 23.9336V34.5H29.6476V23.9336H32.2355ZM29.4719 21.1699C29.4719 20.7858 29.6021 20.4668 29.8625 20.2129C30.1294 19.959 30.4875 19.832 30.9367 19.832C31.3859 19.832 31.7408 19.959 32.0012 20.2129C32.2681 20.4668 32.4016 20.7858 32.4016 21.1699C32.4016 21.5475 32.2681 21.8633 32.0012 22.1172C31.7408 22.3711 31.3859 22.498 30.9367 22.498C30.4875 22.498 30.1294 22.3711 29.8625 22.1172C29.6021 21.8633 29.4719 21.5475 29.4719 21.1699ZM41.5152 23.9336H43.859V34.1777C43.859 35.1348 43.6507 35.9453 43.234 36.6094C42.8238 37.2799 42.2477 37.7877 41.5055 38.1328C40.7633 38.4844 39.9007 38.6602 38.9176 38.6602C38.4944 38.6602 38.0354 38.6016 37.5406 38.4844C37.0523 38.3672 36.5804 38.1816 36.1246 37.9277C35.6754 37.6803 35.3011 37.358 35.0016 36.9609L36.1637 35.4375C36.5152 35.8477 36.9124 36.1569 37.3551 36.3652C37.7978 36.5801 38.2763 36.6875 38.7906 36.6875C39.3115 36.6875 39.7542 36.5898 40.1187 36.3945C40.4898 36.2057 40.773 35.9258 40.9684 35.5547C41.1702 35.1901 41.2711 34.7408 41.2711 34.207V33.5508C40.9944 33.8661 40.6721 34.1206 40.3043 34.3145C39.8225 34.5684 39.2561 34.6953 38.6051 34.6953C37.954 34.6953 37.3681 34.5619 36.8473 34.2949C36.3264 34.028 35.8805 33.6537 35.5094 33.1719C35.1448 32.6901 34.8648 32.1237 34.6695 31.4727C34.4742 30.8217 34.3766 30.1119 34.3766 29.3438V29.1387C34.3766 28.3314 34.4742 27.599 34.6695 26.9414C34.8648 26.2773 35.1448 25.7076 35.5094 25.2324C35.8805 24.7572 36.3264 24.3893 36.8473 24.1289C37.3746 23.8685 37.9671 23.7383 38.6246 23.7383C39.3212 23.7383 39.9072 23.8652 40.3824 24.1191C40.7835 24.3306 41.1259 24.6163 41.4097 24.9766L41.5152 23.9336ZM41.2711 31.5148V26.9232C41.202 26.7926 41.1238 26.6718 41.0367 26.5605C40.8479 26.3197 40.607 26.1309 40.3141 25.9941C40.0211 25.8574 39.6728 25.7891 39.2691 25.7891C38.8785 25.7891 38.5367 25.877 38.2437 26.0527C37.9508 26.222 37.7099 26.4596 37.5211 26.7656C37.3323 27.0717 37.1891 27.4264 37.0914 27.8301C37.0003 28.2338 36.9547 28.6699 36.9547 29.1387V29.3438C36.9547 29.7994 37.0003 30.226 37.0914 30.623C37.1826 31.0201 37.3225 31.3717 37.5113 31.6777C37.7001 31.9772 37.9378 32.2115 38.2242 32.3809C38.5107 32.5502 38.8525 32.6348 39.2496 32.6348C39.7835 32.6348 40.2197 32.524 40.5582 32.3027C40.861 32.1028 41.0986 31.8401 41.2711 31.5148ZM48.8125 34.5V27.0103C48.8716 26.8971 48.9367 26.7894 49.0078 26.6875C49.2096 26.4076 49.457 26.1895 49.75 26.0332C50.0495 25.8705 50.3978 25.7891 50.7949 25.7891C51.179 25.7891 51.5013 25.8477 51.7617 25.9648C52.0287 26.082 52.2305 26.2806 52.3672 26.5605C52.5104 26.8405 52.582 27.2213 52.582 27.7031V34.5H55.1797V27.7227C55.1797 26.9869 55.0983 26.3685 54.9355 25.8672C54.7793 25.3594 54.5514 24.9492 54.252 24.6367C53.959 24.3242 53.6074 24.0963 53.1973 23.9531C52.7871 23.8099 52.3281 23.7383 51.8203 23.7383C51.1953 23.7383 50.6289 23.8588 50.1211 24.0996C49.6133 24.3405 49.1738 24.6855 48.8027 25.1348C48.7831 25.1589 48.7637 25.1835 48.7445 25.2081L48.6562 23.9336H46.2344V34.5H48.8125ZM70.741 20.2812H73.4266V29.7246C73.4266 30.8119 73.1922 31.7266 72.7234 32.4688C72.2547 33.2045 71.6167 33.7611 70.8094 34.1387C70.0021 34.5098 69.0841 34.6953 68.0555 34.6953C67.0138 34.6953 66.0861 34.5098 65.2723 34.1387C64.4585 33.7611 63.8204 33.2045 63.3582 32.4688C62.896 31.7266 62.6649 30.8119 62.6649 29.7246V20.2812H65.3504V29.7246C65.3504 30.3887 65.4611 30.9323 65.6824 31.3555C65.9038 31.7721 66.2163 32.0814 66.6199 32.2832C67.0236 32.485 67.5021 32.5859 68.0555 32.5859C68.6154 32.5859 69.0939 32.485 69.491 32.2832C69.8947 32.0814 70.2039 31.7721 70.4188 31.3555C70.6336 30.9323 70.741 30.3887 70.741 29.7246V20.2812ZM78.4582 38.5625V33.5449C78.7419 33.8674 79.0707 34.1272 79.4445 34.3242C79.9263 34.5717 80.4927 34.6953 81.1437 34.6953C81.8078 34.6953 82.3937 34.5619 82.9016 34.2949C83.4159 34.0215 83.8456 33.6439 84.1906 33.1621C84.5357 32.6738 84.7961 32.1041 84.9719 31.4531C85.1542 30.7955 85.2453 30.0826 85.2453 29.3145V29.1094C85.2453 28.3021 85.1574 27.5697 84.9816 26.9121C84.8058 26.2545 84.5422 25.6881 84.1906 25.2129C83.8391 24.7377 83.4061 24.373 82.8918 24.1191C82.384 23.8652 81.7948 23.7383 81.1242 23.7383C80.4797 23.7383 79.9165 23.8652 79.4348 24.1191C79.0257 24.3376 78.6697 24.6359 78.3667 25.0135L78.2629 23.9336H75.8703V38.5625H78.4582ZM79.1711 32.3223C78.8639 32.1072 78.6263 31.8226 78.4582 31.4684V26.9563C78.5321 26.8054 78.6168 26.667 78.7121 26.541C78.8944 26.3002 79.1288 26.1146 79.4152 25.9844C79.7017 25.8541 80.0435 25.7891 80.4406 25.7891C80.8378 25.7891 81.1763 25.8737 81.4562 26.043C81.7362 26.2123 81.9641 26.4498 82.1398 26.7559C82.3156 27.0553 82.4458 27.4069 82.5305 27.8105C82.6151 28.2076 82.6574 28.6406 82.6574 29.1094V29.3145C82.6574 29.7701 82.6183 30.1998 82.5402 30.6035C82.4621 31.0072 82.3351 31.3652 82.1594 31.6777C81.9836 31.9838 81.7557 32.2246 81.4758 32.4004C81.1958 32.5762 80.8573 32.6641 80.4601 32.6641C79.9328 32.6641 79.5031 32.5502 79.1711 32.3223ZM135 27.5C135 16.7305 126.27 8 115.5 8C104.73 8 96 16.7305 96 27.5C96 32.8359 98.1432 37.6714 101.616 41.1923C103.856 36.0922 109.229 32.5 115.5 32.5C121.772 32.5 127.144 36.092 129.385 41.1919C132.857 37.671 135 32.8358 135 27.5ZM121.5 23.5C121.5 26.8137 118.814 29.5 115.5 29.5C112.186 29.5 109.5 26.8137 109.5 23.5C109.5 20.1863 112.186 17.5 115.5 17.5C118.814 17.5 121.5 20.1863 121.5 23.5ZM119.5 23.5C119.5 25.7091 117.709 27.5 115.5 27.5C113.291 27.5 111.5 25.7091 111.5 23.5C111.5 21.2909 113.291 19.5 115.5 19.5C117.709 19.5 119.5 21.2909 119.5 23.5ZM115.5 34.5C121.297 34.5 126.074 37.9573 127.804 42.629C124.448 45.3617 120.165 47 115.5 47C110.835 47 106.552 45.3618 103.196 42.6293C104.927 37.9575 109.703 34.5 115.5 34.5Z" fill="black"/>
</svg>
