<?xml version="1.0" encoding="utf-8" standalone="yes"?>
<!DOCTYPE svg PUBLIC "-//W3C//DTD SVG 1.1//EN" "http://www.w3.org/Graphics/SVG/1.1/DTD/svg11.dtd">
<svg width="482" height="482" viewBox="0 0 482 482" style="fill:none;stroke:none;fill-rule:evenodd;clip-rule:evenodd;stroke-linecap:round;stroke-linejoin:round;stroke-miterlimit:1.5;" version="1.1" xmlns="http://www.w3.org/2000/svg" xmlns:xlink="http://www.w3.org/1999/xlink"><style id="fontImports">@import url("https://fonts.googleapis.com/css2?family=Roboto:wght@400;700&amp;display=block");</style><rect id="" x="0" y="0" width="482" height="482" style="fill: #272727;"></rect><g id="items" style="isolation: isolate"><g id="blend" style="mix-blend-mode:normal"><g id="g-root-tf_1qaphtl1ruqdc8-fill" data-item-order="-230400" transform="translate(-9, -9)"><g id="tf_1qaphtl1ruqdc8-fill" stroke="none" fill="#505050"><g><path d="M 10 10L 490 10L 490 490L 10 490Z"></path></g></g></g><g id="g-root--1.line_sy_1hfq0l51rl7mrs-fill" data-item-order="-82937" transform="translate(378, 290.99609375)"></g><g id="g-root--1.vector_sy_1czwigp1rl7nk1-fill" data-item-order="-82935" transform="translate(15, 290.99609375)"></g><g id="g-root-4.cr-big_cr_zog03d1rl7p4y-fill" data-item-order="-82932" transform="translate(339, 314.998046875)"></g><g id="g-root-4.cu-smallCircle_sy_dhyyk91rl7ocr-fill" data-item-order="-82929" transform="translate(372, 288.001953125)"></g><g id="g-root-4.ln_ln_74xa11rl7mrw-fill" data-item-order="-82927" transform="translate(375, 294.00201416015625)"></g><g id="g-root-3.cr-big_cr_1lwsgvt1rl7o5p-fill" data-item-order="-82924" transform="translate(243, 195)"></g><g id="g-root-3.cu-smallCircle_sy_18lbyih1rl7pqm-fill" data-item-order="-82921" transform="translate(276, 287.99609375)"></g><g id="g-root-3.ln_ln_vahx891rl7o5r-fill" data-item-order="-82919" transform="translate(279, 267)"></g><g id="g-root-2.cr-big_cr_quof3t1rl7oy0-fill" data-item-order="-82916" transform="translate(147, 315)"></g><g id="g-root-2.cu-smallCircle_sy_djudtl1rl7nd5-fill" data-item-order="-82913" transform="translate(180, 288.001953125)"></g><g id="g-root-2.ln_ln_8dvg91rl7oy2-fill" data-item-order="-82911" transform="translate(183, 294.00201416015625)"></g><g id="g-root-1.cr-big_cr_1lynw551rl7n63-fill" data-item-order="-82908" transform="translate(51, 195)"></g><g id="g-root-1.cu-smallCircle_sy_1hiue0p1rl7nyc-fill" data-item-order="-82905" transform="translate(84, 287.99609375)"></g><g id="g-root-1.ln_ln_147dvnd1rl7pj9-fill" data-item-order="-82903" transform="translate(87, 267)"></g><g id="g-root-path_1q8tzeh1rut98n-fill" data-item-order="0" transform="translate(255, 207)"></g><g id="g-root-go_18gb3w91ruqeiy-fill" data-item-order="0" transform="translate(63, 207)"></g><g id="g-root-tx_finalpro_v4ulix1ruqg3w-fill" data-item-order="0" transform="translate(213, 159)"><g id="tx_finalpro_v4ulix1ruqg3w-fill" stroke="none" fill="#A3A3A3"><g><text style="font: 20px &quot;Roboto&quot;, sans-serif; white-space: pre;" font-size="20px" font-family="'Roboto', sans-serif"><tspan x="17.24" y="34" dominant-baseline="ideographic">Final Product</tspan></text></g></g></g><g id="g-root-tx_projects_3d0u11ruqdqe-fill" data-item-order="0" transform="translate(27, 159)"><g id="tx_projects_3d0u11ruqdqe-fill" stroke="none" fill="#A3A3A3"><g><text style="font: 20px &quot;Roboto&quot;, sans-serif; white-space: pre;" font-size="20px" font-family="'Roboto', sans-serif"><tspan x="14.51" y="34" dominant-baseline="ideographic">Project Start</tspan></text></g></g></g><g id="g-root-core_dgovax1rv1ogb-fill" data-item-order="0" transform="translate(159, 327)"></g><g id="g-root-mult_1uo0xa11rv8npq-fill" data-item-order="0" transform="translate(351, 327)"></g><g id="g-root-tx_projecte_140hlrt1ruqfb7-fill" data-item-order="0" transform="translate(321, 399)"><g id="tx_projecte_140hlrt1ruqfb7-fill" stroke="none" fill="#A3A3A3"><g><text style="font: 20px &quot;Roboto&quot;, sans-serif; white-space: pre;" font-size="20px" font-family="'Roboto', sans-serif"><tspan x="13.2" y="34" dominant-baseline="ideographic">Project End</tspan></text></g></g></g><g id="g-root-tx_projectt_1lt0kft1ruqf47-fill" data-item-order="0" transform="translate(135, -9)"><g id="tx_projectt_1lt0kft1ruqf47-fill" stroke="none" fill="#A3A3A3"><g><text style="font: bold 25px &quot;Roboto&quot;, sans-serif; white-space: pre;" font-weight="bold" font-size="25px" font-family="'Roboto', sans-serif"><tspan x="13.63" y="43.5" dominant-baseline="ideographic">Project Timeline</tspan></text></g></g></g><g id="g-root-tx_mvp_hu0k8p1ruqej1-fill" data-item-order="0" transform="translate(153, 399)"><g id="tx_mvp_hu0k8p1ruqej1-fill" stroke="none" fill="#A3A3A3"><g><text style="font: 20px &quot;Roboto&quot;, sans-serif; white-space: pre;" font-size="20px" font-family="'Roboto', sans-serif"><tspan x="14.43" y="34" dominant-baseline="ideographic">M.V.P</tspan></text></g></g></g><g id="g-root-tf_1qaphtl1ruqdc8-stroke" data-item-order="-230400" transform="translate(-9, -9)"></g><g id="g-root--1.line_sy_1hfq0l51rl7mrs-stroke" data-item-order="-82937" transform="translate(378, 290.99609375)"><g id="-1.line_sy_1hfq0l51rl7mrs-stroke" fill="none" stroke-linecap="round" stroke-linejoin="round" stroke-miterlimit="4" stroke="#A3A3A3" stroke-width="2"><g><path d="M 77 10.003906L 10 10.003906"></path><path d="M 71 16.503906L 77.5 10.003906L 71 3.503906" stroke-dasharray="none"></path></g></g></g><g id="g-root--1.vector_sy_1czwigp1rl7nk1-stroke" data-item-order="-82935" transform="translate(15, 290.99609375)"><g id="-1.vector_sy_1czwigp1rl7nk1-stroke" fill="none" stroke-linecap="round" stroke-linejoin="round" stroke-miterlimit="4" stroke="#A3A3A3" stroke-width="2"><g><path d="M 78.9976 10L 10 10M 174.9976 10L 84.9976 10M 271 10L 181 10M 367 10L 277 10"></path></g></g></g><g id="g-root-4.cr-big_cr_zog03d1rl7p4y-stroke" data-item-order="-82932" transform="translate(339, 314.998046875)"><g id="4.cr-big_cr_zog03d1rl7p4y-stroke" fill="none" stroke-linecap="round" stroke-linejoin="round" stroke-miterlimit="4" stroke="#1AC6FF" stroke-width="2"><g><path d="M 10 46C 10 65.882251 26.117749 82 46 82C 65.882251 82 82 65.882251 82 46C 82 26.117749 65.882251 10 46 10C 26.117749 10 10 26.117749 10 46"></path></g></g></g><g id="g-root-4.cu-smallCircle_sy_dhyyk91rl7ocr-stroke" data-item-order="-82929" transform="translate(372, 288.001953125)"><g id="4.cu-smallCircle_sy_dhyyk91rl7ocr-stroke" fill="none" stroke-linecap="round" stroke-linejoin="round" stroke-miterlimit="4" stroke="#1AC6FF" stroke-width="2"><g><path d="M 10 13C 10 11.343109 11.343079 10 13 10C 14.656921 10 16 11.343109 16 13C 16 14.656891 14.656921 16 13 16C 11.343079 16 10 14.656891 10 13Z"></path></g></g></g><g id="g-root-4.ln_ln_74xa11rl7mrw-stroke" data-item-order="-82927" transform="translate(375, 294.00201416015625)"><g id="4.ln_ln_74xa11rl7mrw-stroke" fill="none" stroke-linecap="round" stroke-linejoin="round" stroke-miterlimit="4" stroke="#1AC6FF" stroke-width="2"><g><path d="M 10 31L 10 20.5L 10 10"></path></g></g></g><g id="g-root-3.cr-big_cr_1lwsgvt1rl7o5p-stroke" data-item-order="-82924" transform="translate(243, 195)"><g id="3.cr-big_cr_1lwsgvt1rl7o5p-stroke" fill="none" stroke-linecap="round" stroke-linejoin="round" stroke-miterlimit="4" stroke="#A8DD38" stroke-width="2"><g><path d="M 10 46C 10 65.882251 26.117749 82 46 82C 65.882251 82 82 65.882251 82 46C 82 26.117749 65.882251 10 46 10C 26.117749 10 10 26.117749 10 46"></path></g></g></g><g id="g-root-3.cu-smallCircle_sy_18lbyih1rl7pqm-stroke" data-item-order="-82921" transform="translate(276, 287.99609375)"><g id="3.cu-smallCircle_sy_18lbyih1rl7pqm-stroke" fill="none" stroke-linecap="round" stroke-linejoin="round" stroke-miterlimit="4" stroke="#A8DD38" stroke-width="2"><g><path d="M 16 13C 16 14.6569 14.6569 16 13 16C 11.3431 16 10 14.6569 10 13C 10 11.3431 11.3431 10 13 10C 14.6569 10 16 11.3431 16 13Z"></path></g></g></g><g id="g-root-3.ln_ln_vahx891rl7o5r-stroke" data-item-order="-82919" transform="translate(279, 267)"><g id="3.ln_ln_vahx891rl7o5r-stroke" fill="none" stroke-linecap="round" stroke-linejoin="round" stroke-miterlimit="4" stroke="#A8DD38" stroke-width="2"><g><path d="M 10 10L 10 20.5L 10 31"></path></g></g></g><g id="g-root-2.cr-big_cr_quof3t1rl7oy0-stroke" data-item-order="-82916" transform="translate(147, 315)"><g id="2.cr-big_cr_quof3t1rl7oy0-stroke" fill="none" stroke-linecap="round" stroke-linejoin="round" stroke-miterlimit="4" stroke="#44E095" stroke-width="2"><g><path d="M 10 46C 10 65.882251 26.117749 82 46 82C 65.882251 82 82 65.882251 82 46C 82 26.117749 65.882251 10 46 10C 26.117749 10 10 26.117749 10 46"></path></g></g></g><g id="g-root-2.cu-smallCircle_sy_djudtl1rl7nd5-stroke" data-item-order="-82913" transform="translate(180, 288.001953125)"><g id="2.cu-smallCircle_sy_djudtl1rl7nd5-stroke" fill="none" stroke-linecap="round" stroke-linejoin="round" stroke-miterlimit="4" stroke="#44E095" stroke-width="2"><g><path d="M 10 13C 10 11.343109 11.343109 10 13 10C 14.656891 10 16 11.343109 16 13C 16 14.656891 14.656891 16 13 16C 11.343109 16 10 14.656891 10 13Z"></path></g></g></g><g id="g-root-2.ln_ln_8dvg91rl7oy2-stroke" data-item-order="-82911" transform="translate(183, 294.00201416015625)"><g id="2.ln_ln_8dvg91rl7oy2-stroke" fill="none" stroke-linecap="round" stroke-linejoin="round" stroke-miterlimit="4" stroke="#44E095" stroke-width="2"><g><path d="M 10 31L 10 20.5L 10 10"></path></g></g></g><g id="g-root-1.cr-big_cr_1lynw551rl7n63-stroke" data-item-order="-82908" transform="translate(51, 195)"><g id="1.cr-big_cr_1lynw551rl7n63-stroke" fill="none" stroke-linecap="round" stroke-linejoin="round" stroke-miterlimit="4" stroke="#4F92FF" stroke-width="2"><g><path d="M 10 46C 10 65.882251 26.117749 82 46 82C 65.882251 82 82 65.882251 82 46C 82 26.117749 65.882251 10 46 10C 26.117749 10 10 26.117749 10 46"></path></g></g></g><g id="g-root-1.cu-smallCircle_sy_1hiue0p1rl7nyc-stroke" data-item-order="-82905" transform="translate(84, 287.99609375)"><g id="1.cu-smallCircle_sy_1hiue0p1rl7nyc-stroke" fill="none" stroke-linecap="round" stroke-linejoin="round" stroke-miterlimit="4" stroke="#4F92FF" stroke-width="2"><g><path d="M 16 13C 16 14.6569 14.6569 16 13 16C 11.3431 16 10 14.6569 10 13C 10 11.3431 11.3431 10 13 10C 14.6569 10 16 11.3431 16 13Z"></path></g></g></g><g id="g-root-1.ln_ln_147dvnd1rl7pj9-stroke" data-item-order="-82903" transform="translate(87, 267)"><g id="1.ln_ln_147dvnd1rl7pj9-stroke" fill="none" stroke-linecap="round" stroke-linejoin="round" stroke-miterlimit="4" stroke="#4F92FF" stroke-width="2"><g><path d="M 10 10L 10 20.5L 10 31"></path></g></g></g><g id="g-root-path_1q8tzeh1rut98n-stroke" data-item-order="0" transform="translate(255, 207)"><g id="path_1q8tzeh1rut98n-stroke" fill="none" stroke-linecap="round" stroke-linejoin="round" stroke-miterlimit="4" stroke="#A8DD38" stroke-width="2"><g><path d="M 51.882 15.566C 53.426292 16.801016 54.609116 18.429474 55.306 20.280001M 55.237999 28.214001C 54.508808 30.052763 53.296856 31.660635 51.73 32.868M 16.118 54.433998C 14.573711 53.198986 13.390885 51.570526 12.694 49.720001M 12.762 41.785999C 13.491192 39.947235 14.703142 38.339363 16.27 37.132M 42 13L 45 13M 25 57L 28 57M 38 35L 44 35M 24 35L 30 35M 34 22L 34 57M 28 28L 34 22L 40 28M 31 14C 31 15.656855 32.343147 17 34 17C 35.656853 17 37 15.656855 37 14C 37 12.343145 35.656853 11 34 11C 32.343147 11 31 12.343145 31 14Z"></path></g></g></g><g id="g-root-go_18gb3w91ruqeiy-stroke" data-item-order="0" transform="translate(63, 207)"><g id="go_18gb3w91ruqeiy-stroke" fill="none" stroke-linecap="round" stroke-linejoin="round" stroke-miterlimit="4" stroke="#4F92FF" stroke-width="2"><g><path d="M 11 13L 57.001999 13L 57.001999 41L 11 41ZM 11 11L 11 57M 57.001999 11L 57.001999 57M 43 30C 43 31.656855 41.656853 33 40 33C 38.343147 33 37 31.656855 37 30L 37 24C 37 22.343147 38.343147 21 40 21C 41.656853 21 43 22.343147 43 24ZM 31 25L 31 24C 31 22.343147 29.656855 21 28 21C 26.343145 21 25 22.343147 25 24L 25 30C 25 31.656855 26.343145 33 28 33C 29.656855 33 31 31.656855 31 30L 31 29L 29 29"></path></g></g></g><g id="g-root-tx_finalpro_v4ulix1ruqg3w-stroke" data-item-order="0" transform="translate(213, 159)"></g><g id="g-root-tx_projects_3d0u11ruqdqe-stroke" data-item-order="0" transform="translate(27, 159)"></g><g id="g-root-core_dgovax1rv1ogb-stroke" data-item-order="0" transform="translate(159, 327)"><g id="core_dgovax1rv1ogb-stroke" fill="none" stroke-linecap="round" stroke-linejoin="round" stroke-miterlimit="4" stroke="#44E095" stroke-width="2"><g><path d="M 23 11L 45 11C 45 11 47 11 47 13L 47 55C 47 55 47 57 45 57L 23 57C 23 57 21 57 21 55L 21 13C 21 13 21 11 23 11M 43 53L 37 53L 34 50L 31 53L 25 53L 25 15L 31 15L 34 18L 37 15L 43 15L 43 53ZM 47 19L 52 19M 47 25L 52 25M 47 31L 52 31M 47 37L 52 37M 47 43L 52 43M 47 49L 52 49M 16 19L 21 19M 16 25L 21 25M 16 31L 21 31M 16 37L 21 37M 16 43L 21 43M 16 49L 21 49"></path></g></g></g><g id="g-root-mult_1uo0xa11rv8npq-stroke" data-item-order="0" transform="translate(351, 327)"><g id="mult_1uo0xa11rv8npq-stroke" fill="none" stroke-linecap="round" stroke-linejoin="round" stroke-miterlimit="4" stroke="#1AC6FF" stroke-width="2"><g><path d="M 21 44L 17 44C 15.895431 44 15 43.104568 15 42L 15 14C 15 12.895431 15.895431 12 17 12L 39 12C 40.104568 12 41 12.895431 41 14L 41 18M 27 50L 23 50C 21.895432 50 21 49.104568 21 48L 21 20C 21 18.895432 21.895432 18 23 18L 45 18C 46.104568 18 47 18.895432 47 20L 47 24M 29 24L 51 24C 51 24 53 24 53 26L 53 54C 53 54 53 56 51 56L 29 56C 29 56 27 56 27 54L 27 26C 27 26 27 24 29 24M 31 32L 31.732 33.464001C 31.870932 33.743011 32.135712 33.938057 32.443375 33.98801C 32.751034 34.037964 33.063927 33.936722 33.283997 33.716L 37 30M 41 32L 49 32M 31 42L 31.732 43.464001C 31.870932 43.743011 32.135712 43.938053 32.443375 43.98801C 32.751034 44.037964 33.063927 43.936718 33.283997 43.716L 37 40M 41 42L 49 42M 41 48L 45 48"></path></g></g></g><g id="g-root-tx_projecte_140hlrt1ruqfb7-stroke" data-item-order="0" transform="translate(321, 399)"></g><g id="g-root-tx_projectt_1lt0kft1ruqf47-stroke" data-item-order="0" transform="translate(135, -9)"></g><g id="g-root-tx_mvp_hu0k8p1ruqej1-stroke" data-item-order="0" transform="translate(153, 399)"></g></g></g></svg>